<svg width="90" height="30" viewBox="0 0 90 30" fill="none" xmlns="http://www.w3.org/2000/svg">
<g clip-path="url(#clip0_9_117)">
<path d="M74.9962 9.99787C72.2419 9.99787 69.9941 12.2456 69.9941 15C69.9941 17.7544 72.2419 20.0021 74.9962 20.0021C77.7506 20.0021 79.9984 17.7544 79.9984 15C79.9984 12.2456 77.7506 9.99787 74.9962 9.99787ZM89.9989 15C89.9989 12.9286 90.0176 10.876 89.9013 8.80832C89.785 6.40669 89.2371 4.27525 87.4809 2.51907C85.721 0.759128 83.5933 0.215011 81.1917 0.098682C79.1203 -0.0176466 77.0676 0.00111617 75 0.00111617C72.9286 0.00111617 70.876 -0.0176466 68.8083 0.098682C66.4067 0.215011 64.2753 0.762881 62.5191 2.51907C60.7591 4.27901 60.215 6.40669 60.0987 8.80832C59.9824 10.8797 60.0011 12.9324 60.0011 15C60.0011 17.0676 59.9824 19.124 60.0987 21.1917C60.215 23.5933 60.7629 25.7247 62.5191 27.4809C64.279 29.2409 66.4067 29.785 68.8083 29.9013C70.8797 30.0176 72.9324 29.9989 75 29.9989C77.0714 29.9989 79.124 30.0176 81.1917 29.9013C83.5933 29.785 85.7247 29.2371 87.4809 27.4809C89.2409 25.721 89.785 23.5933 89.9013 21.1917C90.0214 19.124 89.9989 17.0714 89.9989 15ZM74.9962 22.6964C70.7371 22.6964 67.2998 19.2591 67.2998 15C67.2998 10.7409 70.7371 7.30355 74.9962 7.30355C79.2554 7.30355 82.6927 10.7409 82.6927 15C82.6927 19.2591 79.2554 22.6964 74.9962 22.6964ZM83.0079 8.7858C82.0135 8.7858 81.2104 7.98276 81.2104 6.98834C81.2104 5.99392 82.0135 5.19087 83.0079 5.19087C84.0023 5.19087 84.8054 5.99392 84.8054 6.98834C84.8057 7.22447 84.7594 7.45834 84.6692 7.67655C84.5789 7.89476 84.4465 8.09303 84.2796 8.26C84.1126 8.42697 83.9143 8.55936 83.6961 8.64958C83.4779 8.73981 83.244 8.7861 83.0079 8.7858Z" fill="#2C363F"/>
</g>
<g clip-path="url(#clip1_9_117)">
<path fill-rule="evenodd" clip-rule="evenodd" d="M3.7099e-07 2.50637C3.7099e-07 1.84164 0.264063 1.20413 0.734097 0.7341C1.20413 0.264066 1.84163 3.34134e-06 2.50636 3.34134e-06H27.4909C27.8203 -0.000534684 28.1466 0.0639073 28.4511 0.18964C28.7556 0.315372 29.0323 0.499926 29.2653 0.732735C29.4984 0.965543 29.6833 1.24204 29.8093 1.54638C29.9354 1.85073 30.0002 2.17695 30 2.50637V27.4909C30.0004 27.8204 29.9357 28.1467 29.8099 28.4512C29.684 28.7557 29.4993 29.0324 29.2664 29.2654C29.0335 29.4985 28.7569 29.6833 28.4525 29.8093C28.148 29.9354 27.8218 30.0002 27.4923 30H2.50636C2.17711 30 1.85108 29.9351 1.5469 29.8091C1.24273 29.683 0.96637 29.4983 0.733615 29.2654C0.50086 29.0325 0.316271 28.7561 0.190394 28.4518C0.0645181 28.1476 -0.000178767 27.8215 3.7099e-07 27.4923V2.50637ZM11.8745 11.4382H15.9368V13.4782C16.5232 12.3055 18.0232 11.25 20.2773 11.25C24.5986 11.25 25.6227 13.5859 25.6227 17.8718V25.8109H21.2495V18.8482C21.2495 16.4073 20.6632 15.03 19.1741 15.03C17.1082 15.03 16.2491 16.515 16.2491 18.8482V25.8109H11.8745V11.4382ZM4.37455 25.6241H8.74909V11.25H4.37455V25.6227V25.6241ZM9.375 6.56182C9.38325 6.93637 9.3166 7.3088 9.17896 7.65725C9.04133 8.0057 8.83548 8.32314 8.5735 8.59096C8.31152 8.85877 7.99868 9.07156 7.65335 9.21683C7.30802 9.3621 6.93714 9.43694 6.5625 9.43694C6.18786 9.43694 5.81698 9.3621 5.47165 9.21683C5.12632 9.07156 4.81348 8.85877 4.5515 8.59096C4.28952 8.32314 4.08367 8.0057 3.94604 7.65725C3.8084 7.3088 3.74175 6.93637 3.75 6.56182C3.76619 5.82662 4.06962 5.12699 4.5953 4.61276C5.12098 4.09852 5.82712 3.81057 6.5625 3.81057C7.29788 3.81057 8.00402 4.09852 8.5297 4.61276C9.05538 5.12699 9.35881 5.82662 9.375 6.56182Z" fill="#2C363F"/>
</g>
<defs>
<clipPath id="clip0_9_117">
<rect width="30" height="30" fill="white" transform="translate(60)"/>
</clipPath>
<clipPath id="clip1_9_117">
<rect width="30" height="30" fill="white"/>
</clipPath>
</defs>
</svg>
